<svg xmlns="http://www.w3.org/2000/svg" viewBox="0 0 260 300" fill="none" aria-hidden="true">
<path d="M130,126C136,208 120,248 126,294" stroke="currentColor" stroke-width="2" stroke-linecap="round"/>
<path d="M130,118L221.02,123.71" stroke="currentColor" stroke-width="0.9" opacity="0.85"/>
<path d="M221.02,123.71L229.94,122.53" stroke="currentColor" stroke-width="0.7" opacity="0.6"/>
<path d="M221.02,123.71L230,124.32" stroke="currentColor" stroke-width="0.7" opacity="0.6"/>
<path d="M221.02,123.71L229.7,126.09" stroke="currentColor" stroke-width="0.7" opacity="0.6"/>
<path d="M130,118L220.46,133.78" stroke="currentColor" stroke-width="0.9" opacity="0.85"/>
<path d="M220.46,133.78L229.46,133.66" stroke="currentColor" stroke-width="0.7" opacity="0.6"/>
<path d="M220.46,133.78L229.3,135.45" stroke="currentColor" stroke-width="0.7" opacity="0.6"/>
<path d="M220.46,133.78L228.79,137.18" stroke="currentColor" stroke-width="0.7" opacity="0.6"/>
<path d="M130,118L215.55,145.96" stroke="currentColor" stroke-width="0.9" opacity="0.85"/>
<path d="M215.55,145.96L224.46,147.23" stroke="currentColor" stroke-width="0.7" opacity="0.6"/>
<path d="M215.55,145.96L224.03,148.97" stroke="currentColor" stroke-width="0.7" opacity="0.6"/>
<path d="M215.55,145.96L223.26,150.6" stroke="currentColor" stroke-width="0.7" opacity="0.6"/>
<path d="M130,118L209.29,156.25" stroke="currentColor" stroke-width="0.9" opacity="0.85"/>
<path d="M209.29,156.25L217.93,158.76" stroke="currentColor" stroke-width="0.7" opacity="0.6"/>
<path d="M209.29,156.25L217.26,160.42" stroke="currentColor" stroke-width="0.7" opacity="0.6"/>
<path d="M209.29,156.25L216.27,161.92" stroke="currentColor" stroke-width="0.7" opacity="0.6"/>
<path d="M130,118L212.17,164.45" stroke="currentColor" stroke-width="0.9" opacity="0.85"/>
<path d="M212.17,164.45L220.63,167.55" stroke="currentColor" stroke-width="0.7" opacity="0.6"/>
<path d="M212.17,164.45L219.84,169.16" stroke="currentColor" stroke-width="0.7" opacity="0.6"/>
<path d="M212.17,164.45L218.75,170.59" stroke="currentColor" stroke-width="0.7" opacity="0.6"/>
<path d="M130,118L193.4,172.28" stroke="currentColor" stroke-width="0.9" opacity="0.85"/>
<path d="M193.4,172.28L201.07,176.98" stroke="currentColor" stroke-width="0.7" opacity="0.6"/>
<path d="M193.4,172.28L199.98,178.41" stroke="currentColor" stroke-width="0.7" opacity="0.6"/>
<path d="M193.4,172.28L198.63,179.6" stroke="currentColor" stroke-width="0.7" opacity="0.6"/>
<path d="M130,118L198.14,188.91" stroke="currentColor" stroke-width="0.9" opacity="0.85"/>
<path d="M198.14,188.91L205.32,194.33" stroke="currentColor" stroke-width="0.7" opacity="0.6"/>
<path d="M198.14,188.91L204.1,195.65" stroke="currentColor" stroke-width="0.7" opacity="0.6"/>
<path d="M198.14,188.91L202.64,196.7" stroke="currentColor" stroke-width="0.7" opacity="0.6"/>
<path d="M130,118L175.93,182.19" stroke="currentColor" stroke-width="0.9" opacity="0.85"/>
<path d="M175.93,182.19L182.27,188.57" stroke="currentColor" stroke-width="0.7" opacity="0.6"/>
<path d="M175.93,182.19L180.87,189.71" stroke="currentColor" stroke-width="0.7" opacity="0.6"/>
<path d="M175.93,182.19L179.28,190.54" stroke="currentColor" stroke-width="0.7" opacity="0.6"/>
<path d="M130,118L172.61,197.71" stroke="currentColor" stroke-width="0.9" opacity="0.85"/>
<path d="M172.61,197.71L178.1,204.83" stroke="currentColor" stroke-width="0.7" opacity="0.6"/>
<path d="M172.61,197.71L176.58,205.78" stroke="currentColor" stroke-width="0.7" opacity="0.6"/>
<path d="M172.61,197.71L174.89,206.41" stroke="currentColor" stroke-width="0.7" opacity="0.6"/>
<path d="M130,118L153.51,194.16" stroke="currentColor" stroke-width="0.9" opacity="0.85"/>
<path d="M153.51,194.16L157.64,202.16" stroke="currentColor" stroke-width="0.7" opacity="0.6"/>
<path d="M153.51,194.16L155.97,202.82" stroke="currentColor" stroke-width="0.7" opacity="0.6"/>
<path d="M153.51,194.16L154.2,203.13" stroke="currentColor" stroke-width="0.7" opacity="0.6"/>
<path d="M130,118L146.81,201.27" stroke="currentColor" stroke-width="0.9" opacity="0.85"/>
<path d="M146.81,201.27L150.18,209.61" stroke="currentColor" stroke-width="0.7" opacity="0.6"/>
<path d="M146.81,201.27L148.45,210.11" stroke="currentColor" stroke-width="0.7" opacity="0.6"/>
<path d="M146.81,201.27L146.66,210.26" stroke="currentColor" stroke-width="0.7" opacity="0.6"/>
<path d="M130,118L134.48,198.76" stroke="currentColor" stroke-width="0.9" opacity="0.85"/>
<path d="M134.48,198.76L136.71,207.48" stroke="currentColor" stroke-width="0.7" opacity="0.6"/>
<path d="M134.48,198.76L134.94,207.75" stroke="currentColor" stroke-width="0.7" opacity="0.6"/>
<path d="M134.48,198.76L133.14,207.66" stroke="currentColor" stroke-width="0.7" opacity="0.6"/>
<path d="M130,118L122.74,200.93" stroke="currentColor" stroke-width="0.9" opacity="0.85"/>
<path d="M122.74,200.93L123.82,209.87" stroke="currentColor" stroke-width="0.7" opacity="0.6"/>
<path d="M122.74,200.93L122.02,209.9" stroke="currentColor" stroke-width="0.7" opacity="0.6"/>
<path d="M122.74,200.93L120.25,209.58" stroke="currentColor" stroke-width="0.7" opacity="0.6"/>
<path d="M130,118L112.06,188.76" stroke="currentColor" stroke-width="0.9" opacity="0.85"/>
<path d="M112.06,188.76L111.8,197.75" stroke="currentColor" stroke-width="0.7" opacity="0.6"/>
<path d="M112.06,188.76L110.02,197.52" stroke="currentColor" stroke-width="0.7" opacity="0.6"/>
<path d="M112.06,188.76L108.31,196.94" stroke="currentColor" stroke-width="0.7" opacity="0.6"/>
<path d="M130,118L97.08,187.76" stroke="currentColor" stroke-width="0.9" opacity="0.85"/>
<path d="M97.08,187.76L95.21,196.57" stroke="currentColor" stroke-width="0.7" opacity="0.6"/>
<path d="M97.08,187.76L93.5,196.02" stroke="currentColor" stroke-width="0.7" opacity="0.6"/>
<path d="M97.08,187.76L91.93,195.14" stroke="currentColor" stroke-width="0.7" opacity="0.6"/>
<path d="M130,118L85.97,195.71" stroke="currentColor" stroke-width="0.9" opacity="0.85"/>
<path d="M85.97,195.71L83.48,204.35" stroke="currentColor" stroke-width="0.7" opacity="0.6"/>
<path d="M85.97,195.71L81.81,203.69" stroke="currentColor" stroke-width="0.7" opacity="0.6"/>
<path d="M85.97,195.71L80.31,202.7" stroke="currentColor" stroke-width="0.7" opacity="0.6"/>
<path d="M130,118L74.74,184.46" stroke="currentColor" stroke-width="0.9" opacity="0.85"/>
<path d="M74.74,184.46L70.8,192.55" stroke="currentColor" stroke-width="0.7" opacity="0.6"/>
<path d="M74.74,184.46L69.27,191.61" stroke="currentColor" stroke-width="0.7" opacity="0.6"/>
<path d="M74.74,184.46L67.96,190.38" stroke="currentColor" stroke-width="0.7" opacity="0.6"/>
<path d="M130,118L69.31,170.96" stroke="currentColor" stroke-width="0.9" opacity="0.85"/>
<path d="M69.31,170.96L64.14,178.33" stroke="currentColor" stroke-width="0.7" opacity="0.6"/>
<path d="M69.31,170.96L62.78,177.15" stroke="currentColor" stroke-width="0.7" opacity="0.6"/>
<path d="M69.31,170.96L61.68,175.73" stroke="currentColor" stroke-width="0.7" opacity="0.6"/>
<path d="M130,118L57.12,166.42" stroke="currentColor" stroke-width="0.9" opacity="0.85"/>
<path d="M57.12,166.42L51.02,173.04" stroke="currentColor" stroke-width="0.7" opacity="0.6"/>
<path d="M57.12,166.42L49.82,171.69" stroke="currentColor" stroke-width="0.7" opacity="0.6"/>
<path d="M57.12,166.42L48.92,170.14" stroke="currentColor" stroke-width="0.7" opacity="0.6"/>
<path d="M130,118L57.54,154.59" stroke="currentColor" stroke-width="0.9" opacity="0.85"/>
<path d="M57.54,154.59L50.67,160.4" stroke="currentColor" stroke-width="0.7" opacity="0.6"/>
<path d="M57.54,154.59L49.65,158.92" stroke="currentColor" stroke-width="0.7" opacity="0.6"/>
<path d="M57.54,154.59L48.95,157.27" stroke="currentColor" stroke-width="0.7" opacity="0.6"/>
<path d="M130,118L40.78,152.17" stroke="currentColor" stroke-width="0.9" opacity="0.85"/>
<path d="M40.78,152.17L33.33,157.21" stroke="currentColor" stroke-width="0.7" opacity="0.6"/>
<path d="M40.78,152.17L32.47,155.63" stroke="currentColor" stroke-width="0.7" opacity="0.6"/>
<path d="M40.78,152.17L31.95,153.91" stroke="currentColor" stroke-width="0.7" opacity="0.6"/>
<path d="M130,118L47.36,135.78" stroke="currentColor" stroke-width="0.9" opacity="0.85"/>
<path d="M47.36,135.78L39.18,139.53" stroke="currentColor" stroke-width="0.7" opacity="0.6"/>
<path d="M47.36,135.78L38.59,137.83" stroke="currentColor" stroke-width="0.7" opacity="0.6"/>
<path d="M47.36,135.78L38.36,136.05" stroke="currentColor" stroke-width="0.7" opacity="0.6"/>
<path d="M130,118L33.67,123.89" stroke="currentColor" stroke-width="0.9" opacity="0.85"/>
<path d="M33.67,123.89L24.99,126.26" stroke="currentColor" stroke-width="0.7" opacity="0.6"/>
<path d="M33.67,123.89L24.69,124.49" stroke="currentColor" stroke-width="0.7" opacity="0.6"/>
<path d="M33.67,123.89L24.75,122.7" stroke="currentColor" stroke-width="0.7" opacity="0.6"/>
<path d="M130,118L51.03,116.65" stroke="currentColor" stroke-width="0.9" opacity="0.85"/>
<path d="M51.03,116.65L42.18,118.27" stroke="currentColor" stroke-width="0.7" opacity="0.6"/>
<path d="M51.03,116.65L42.03,116.48" stroke="currentColor" stroke-width="0.7" opacity="0.6"/>
<path d="M51.03,116.65L42.24,114.7" stroke="currentColor" stroke-width="0.7" opacity="0.6"/>
<path d="M130,118L52.91,106.89" stroke="currentColor" stroke-width="0.9" opacity="0.85"/>
<path d="M52.91,106.89L43.92,107.3" stroke="currentColor" stroke-width="0.7" opacity="0.6"/>
<path d="M52.91,106.89L44.02,105.5" stroke="currentColor" stroke-width="0.7" opacity="0.6"/>
<path d="M52.91,106.89L44.47,103.76" stroke="currentColor" stroke-width="0.7" opacity="0.6"/>
<path d="M130,118L51.22,94.65" stroke="currentColor" stroke-width="0.9" opacity="0.85"/>
<path d="M51.22,94.65L42.27,93.65" stroke="currentColor" stroke-width="0.7" opacity="0.6"/>
<path d="M51.22,94.65L42.65,91.9" stroke="currentColor" stroke-width="0.7" opacity="0.6"/>
<path d="M51.22,94.65L43.37,90.25" stroke="currentColor" stroke-width="0.7" opacity="0.6"/>
<path d="M130,118L56.98,85.15" stroke="currentColor" stroke-width="0.9" opacity="0.85"/>
<path d="M56.98,85.15L48.27,82.88" stroke="currentColor" stroke-width="0.7" opacity="0.6"/>
<path d="M56.98,85.15L48.89,81.2" stroke="currentColor" stroke-width="0.7" opacity="0.6"/>
<path d="M56.98,85.15L49.84,79.67" stroke="currentColor" stroke-width="0.7" opacity="0.6"/>
<path d="M130,118L45.59,67.34" stroke="currentColor" stroke-width="0.9" opacity="0.85"/>
<path d="M45.59,67.34L37.22,64.02" stroke="currentColor" stroke-width="0.7" opacity="0.6"/>
<path d="M45.59,67.34L38.05,62.43" stroke="currentColor" stroke-width="0.7" opacity="0.6"/>
<path d="M45.59,67.34L39.18,61.03" stroke="currentColor" stroke-width="0.7" opacity="0.6"/>
<path d="M130,118L65.16,63.02" stroke="currentColor" stroke-width="0.9" opacity="0.85"/>
<path d="M65.16,63.02L57.46,58.36" stroke="currentColor" stroke-width="0.7" opacity="0.6"/>
<path d="M65.16,63.02L58.54,56.92" stroke="currentColor" stroke-width="0.7" opacity="0.6"/>
<path d="M65.16,63.02L59.89,55.73" stroke="currentColor" stroke-width="0.7" opacity="0.6"/>
<path d="M130,118L79.1,60.66" stroke="currentColor" stroke-width="0.9" opacity="0.85"/>
<path d="M79.1,60.66L72.13,54.96" stroke="currentColor" stroke-width="0.7" opacity="0.6"/>
<path d="M79.1,60.66L73.41,53.69" stroke="currentColor" stroke-width="0.7" opacity="0.6"/>
<path d="M79.1,60.66L74.9,52.7" stroke="currentColor" stroke-width="0.7" opacity="0.6"/>
<path d="M130,118L77.78,47.56" stroke="currentColor" stroke-width="0.9" opacity="0.85"/>
<path d="M77.78,47.56L71.33,41.28" stroke="currentColor" stroke-width="0.7" opacity="0.6"/>
<path d="M77.78,47.56L72.7,40.13" stroke="currentColor" stroke-width="0.7" opacity="0.6"/>
<path d="M77.78,47.56L74.28,39.27" stroke="currentColor" stroke-width="0.7" opacity="0.6"/>
<path d="M130,118L89.89,32.01" stroke="currentColor" stroke-width="0.9" opacity="0.85"/>
<path d="M89.89,32.01L84.77,24.61" stroke="currentColor" stroke-width="0.7" opacity="0.6"/>
<path d="M89.89,32.01L86.34,23.74" stroke="currentColor" stroke-width="0.7" opacity="0.6"/>
<path d="M89.89,32.01L88.05,23.2" stroke="currentColor" stroke-width="0.7" opacity="0.6"/>
<path d="M130,118L100.17,27.25" stroke="currentColor" stroke-width="0.9" opacity="0.85"/>
<path d="M100.17,27.25L95.91,19.33" stroke="currentColor" stroke-width="0.7" opacity="0.6"/>
<path d="M100.17,27.25L97.56,18.64" stroke="currentColor" stroke-width="0.7" opacity="0.6"/>
<path d="M100.17,27.25L99.33,18.29" stroke="currentColor" stroke-width="0.7" opacity="0.6"/>
<path d="M130,118L113.04,33.3" stroke="currentColor" stroke-width="0.9" opacity="0.85"/>
<path d="M113.04,33.3L109.69,24.95" stroke="currentColor" stroke-width="0.7" opacity="0.6"/>
<path d="M113.04,33.3L111.41,24.45" stroke="currentColor" stroke-width="0.7" opacity="0.6"/>
<path d="M113.04,33.3L113.2,24.3" stroke="currentColor" stroke-width="0.7" opacity="0.6"/>
<path d="M130,118L125.79,31.8" stroke="currentColor" stroke-width="0.9" opacity="0.85"/>
<path d="M125.79,31.8L123.61,23.07" stroke="currentColor" stroke-width="0.7" opacity="0.6"/>
<path d="M125.79,31.8L125.39,22.81" stroke="currentColor" stroke-width="0.7" opacity="0.6"/>
<path d="M125.79,31.8L127.18,22.91" stroke="currentColor" stroke-width="0.7" opacity="0.6"/>
<path d="M130,118L137.72,40.32" stroke="currentColor" stroke-width="0.9" opacity="0.85"/>
<path d="M137.72,40.32L136.74,31.37" stroke="currentColor" stroke-width="0.7" opacity="0.6"/>
<path d="M137.72,40.32L138.54,31.36" stroke="currentColor" stroke-width="0.7" opacity="0.6"/>
<path d="M137.72,40.32L140.3,31.7" stroke="currentColor" stroke-width="0.7" opacity="0.6"/>
<path d="M130,118L155.96,34.53" stroke="currentColor" stroke-width="0.9" opacity="0.85"/>
<path d="M155.96,34.53L156.67,25.56" stroke="currentColor" stroke-width="0.7" opacity="0.6"/>
<path d="M155.96,34.53L158.44,25.87" stroke="currentColor" stroke-width="0.7" opacity="0.6"/>
<path d="M155.96,34.53L160.11,26.54" stroke="currentColor" stroke-width="0.7" opacity="0.6"/>
<path d="M130,118L159.64,46.31" stroke="currentColor" stroke-width="0.9" opacity="0.85"/>
<path d="M159.64,46.31L161.11,37.43" stroke="currentColor" stroke-width="0.7" opacity="0.6"/>
<path d="M159.64,46.31L162.84,37.89" stroke="currentColor" stroke-width="0.7" opacity="0.6"/>
<path d="M159.64,46.31L164.45,38.7" stroke="currentColor" stroke-width="0.7" opacity="0.6"/>
<path d="M130,118L175.98,49.8" stroke="currentColor" stroke-width="0.9" opacity="0.85"/>
<path d="M175.98,49.8L179.11,41.36" stroke="currentColor" stroke-width="0.7" opacity="0.6"/>
<path d="M175.98,49.8L180.72,42.15" stroke="currentColor" stroke-width="0.7" opacity="0.6"/>
<path d="M175.98,49.8L182.15,43.24" stroke="currentColor" stroke-width="0.7" opacity="0.6"/>
<path d="M130,118L180.97,59.17" stroke="currentColor" stroke-width="0.9" opacity="0.85"/>
<path d="M180.97,59.17L185.07,51.15" stroke="currentColor" stroke-width="0.7" opacity="0.6"/>
<path d="M180.97,59.17L186.58,52.13" stroke="currentColor" stroke-width="0.7" opacity="0.6"/>
<path d="M180.97,59.17L187.86,53.38" stroke="currentColor" stroke-width="0.7" opacity="0.6"/>
<path d="M130,118L196.23,56.66" stroke="currentColor" stroke-width="0.9" opacity="0.85"/>
<path d="M196.23,56.66L201.18,49.14" stroke="currentColor" stroke-width="0.7" opacity="0.6"/>
<path d="M196.23,56.66L202.58,50.27" stroke="currentColor" stroke-width="0.7" opacity="0.6"/>
<path d="M196.23,56.66L203.72,51.66" stroke="currentColor" stroke-width="0.7" opacity="0.6"/>
<path d="M130,118L208.58,61.88" stroke="currentColor" stroke-width="0.9" opacity="0.85"/>
<path d="M208.58,61.88L214.45,55.06" stroke="currentColor" stroke-width="0.7" opacity="0.6"/>
<path d="M208.58,61.88L215.68,56.36" stroke="currentColor" stroke-width="0.7" opacity="0.6"/>
<path d="M208.58,61.88L216.64,57.89" stroke="currentColor" stroke-width="0.7" opacity="0.6"/>
<path d="M130,118L212.76,77.3" stroke="currentColor" stroke-width="0.9" opacity="0.85"/>
<path d="M212.76,77.3L219.7,71.56" stroke="currentColor" stroke-width="0.7" opacity="0.6"/>
<path d="M212.76,77.3L220.7,73.06" stroke="currentColor" stroke-width="0.7" opacity="0.6"/>
<path d="M212.76,77.3L221.39,74.72" stroke="currentColor" stroke-width="0.7" opacity="0.6"/>
<path d="M130,118L204.67,93.76" stroke="currentColor" stroke-width="0.9" opacity="0.85"/>
<path d="M204.67,93.76L212.4,89.14" stroke="currentColor" stroke-width="0.7" opacity="0.6"/>
<path d="M204.67,93.76L213.16,90.77" stroke="currentColor" stroke-width="0.7" opacity="0.6"/>
<path d="M204.67,93.76L213.59,92.51" stroke="currentColor" stroke-width="0.7" opacity="0.6"/>
<path d="M130,118L213.42,102.56" stroke="currentColor" stroke-width="0.9" opacity="0.85"/>
<path d="M213.42,102.56L221.72,99.06" stroke="currentColor" stroke-width="0.7" opacity="0.6"/>
<path d="M213.42,102.56L222.25,100.78" stroke="currentColor" stroke-width="0.7" opacity="0.6"/>
<path d="M213.42,102.56L222.42,102.57" stroke="currentColor" stroke-width="0.7" opacity="0.6"/>
<path d="M130,118L209.28,111.03" stroke="currentColor" stroke-width="0.9" opacity="0.85"/>
<path d="M209.28,111.03L217.89,108.42" stroke="currentColor" stroke-width="0.7" opacity="0.6"/>
<path d="M209.28,111.03L218.24,110.18" stroke="currentColor" stroke-width="0.7" opacity="0.6"/>
<path d="M209.28,111.03L218.23,111.98" stroke="currentColor" stroke-width="0.7" opacity="0.6"/>
<circle cx="130" cy="118" r="4" fill="currentColor"/>
</svg>
